<svg width="639" height="465" xmlns="http://www.w3.org/2000/svg"><path d="M104.386 49.002c-48.932 31.957-85.962 74.81-98.746 120.93-13.005 46.12-1.763 95.509 15.87 144.171 17.633 48.481 41.658 96.418 84.86 122.02 43.421 25.602 106.019 29.052 168.396 28.87 62.378-.363 124.534-4.176 177.434-27.418 52.68-23.06 96.1-65.367 133.792-118.932 37.69-53.747 69.871-118.751 43.2-162.51-26.67-43.76-111.97-66.276-180.96-92.786C379.463 36.655 327.225 5.605 270.578.703 214.152-4.2 153.098 17.045 104.386 49.002z" fill="#8EE0CC" fill-rule="evenodd" opacity=".5"/></svg>